<svg xmlns="http://www.w3.org/2000/svg" width="240" height="360" viewBox="0 0 240 360" role="img" aria-label="Default poster">
  <style>
    :root {
      --bg: #eeece7;
      --panel: #f7f7f5;
      --border: #d9d9dd;
      --mark: #003c33;
      --mark-soft: #edfce9;
      --spine: #8fbfb7;
      --line: #d9d9dd;
    }
    @media (prefers-color-scheme: dark) {
      :root {
        --bg: #17171c;
        --panel: #1f1f24;
        --border: #303038;
        --mark: #89d9c8;
        --mark-soft: #15352f;
        --spine: #3b7b70;
        --line: #5f6070;
      }
    }
  </style>
  <rect width="240" height="360" rx="14" fill="var(--bg)"/>
  <rect x="14" y="14" width="212" height="332" rx="10" fill="var(--panel)" stroke="var(--border)" stroke-width="2"/>
  <path d="M74 122h62c24 0 43 19 43 43v30c0 24-19 43-43 43H74z" fill="var(--mark)"/>
  <path d="M92 145h42c11 0 20 9 20 20v30c0 11-9 20-20 20H92z" fill="var(--mark-soft)"/>
  <rect x="74" y="122" width="22" height="116" fill="var(--spine)"/>
  <rect x="96" y="144" width="35" height="12" fill="var(--mark)"/>
  <rect x="96" y="173" width="54" height="12" fill="var(--mark)"/>
  <rect x="96" y="202" width="29" height="12" fill="var(--mark)"/>
  <path d="M74 270h92" stroke="var(--spine)" stroke-width="8" stroke-linecap="square"/>
  <path d="M91 292h58" stroke="var(--line)" stroke-width="6" stroke-linecap="square"/>
</svg>
